<svg version="1.1" xmlns="http://www.w3.org/2000/svg" xmlns:xlink="http://www.w3.org/1999/xlink">
    <defs>
        <!-- ▼ Header_検索 ▼ -->
        <symbol id="search" viewBox="0 0 512 512">
            <g>
                <path class="st0" d="M332.998,291.918c52.2-71.895,45.941-173.338-18.834-238.123c-71.736-71.728-188.468-71.728-260.195,0
                    c-71.746,71.745-71.746,188.458,0,260.204c64.775,64.775,166.218,71.034,238.104,18.844l14.222,14.203l40.916-40.916
                    L332.998,291.918z M278.488,278.333c-52.144,52.134-136.699,52.144-188.852,0c-52.152-52.153-52.152-136.717,0-188.861
                    c52.154-52.144,136.708-52.144,188.852,0C330.64,141.616,330.64,226.18,278.488,278.333z" style="fill: rgb(75, 75, 75);">
                </path>
                <path class="st0" d="M109.303,119.216c-27.078,34.788-29.324,82.646-6.756,119.614c2.142,3.489,6.709,4.603,10.208,2.46
                    c3.49-2.142,4.594-6.709,2.462-10.198v0.008c-19.387-31.7-17.45-72.962,5.782-102.771c2.526-3.228,1.946-7.898-1.292-10.405
                    C116.48,115.399,111.811,115.979,109.303,119.216z" style="fill: rgb(75, 75, 75);">
                </path>
                <path class="st0" d="M501.499,438.591L363.341,315.178l-47.98,47.98l123.403,138.168c12.548,16.234,35.144,13.848,55.447-6.456
                    C514.505,474.576,517.743,451.138,501.499,438.591z" style="fill: rgb(75, 75, 75);">
                </path>
            </g>
        </symbol>

        <!-- ▼ Chat_送信 ▼ -->
        <symbol id="send" viewBox="0 0 512 512">
        	<path class="st0" d="M0,218.241l20.913,15.158l118.904,86.199v132.866l103.404-57.892l92.52,67.064L512,50.363L0,218.241z
		        M57.326,227.202L442.817,100.81L156.609,299.193L57.326,227.202z M166.202,407.459v-68.74l53.494,38.786L166.202,407.459z
		        M324.494,420.906L172.776,310.92L455.69,114.808L324.494,420.906z">
            </path>
        </symbol>

        <!-- ▼ Player_再生 ▼ -->
        <symbol id="play" viewBox="0 0 448 512">
            <path d="M424.4 214.7L72.4 6.6C43.8-10.3 0 6.1 0 47.9V464c0 37.5 40.7 60.1 72.4 41.3l352-208c31.4-18.5 31.5-64.1 0-82.6z"></path>
        </symbol>

        <!-- ▼ Player_一時停止 ▼ -->
        <symbol id="pause" viewBox="0 0 448 512">
            <path d="M144 479H48c-26.5 0-48-21.5-48-48V79c0-26.5 21.5-48 48-48h96c26.5 0 48 21.5 48 48v352c0 26.5-21.5 48-48 
                48zm304-48V79c0-26.5-21.5-48-48-48h-96c-26.5 0-48 21.5-48 48v352c0 26.5 21.5 48 48 48h96c26.5 0 48-21.5 48-48z">
            </path>
        </symbol>

        <!-- ▼ Player_次へ ▼ -->
        <symbol id="next" viewBox="0 0 448 512">
	        <path class="st0" d="M388.208,36.127v213.409c-0.37-0.318-0.588-0.79-1.025-1.04L13.252,25.244
		        c-2.671-1.562-6.064-1.661-8.852-0.067C1.747,26.706,0,29.677,0,32.802v223.234v223.116c0,3.225,1.747,6.146,4.401,7.641
		        c2.788,1.63,6.181,1.529,8.852-0.033l373.93-223.252c0.437-0.251,0.655-0.722,1.025-1.04v207.06H512V36.127H388.208z">
            </path>
        </symbol>

        <!-- ▼ Player_前へ ▼ -->
        <symbol id="previous" viewBox="0 0 448 512">
	        <path class="st0" d="M507.616,25.192c-2.77-1.611-6.179-1.512-8.867,0.052l-373.898,223.25c-0.454,0.268-0.67,0.739-1.058,1.075
		        V42.474H0v433.385h123.794V262.433c0.387,0.337,0.604,0.824,1.058,1.075L498.75,486.742c2.688,1.579,6.096,1.68,8.867,0.067
		        c2.671-1.512,4.384-4.484,4.384-7.608V255.984V32.818C512,29.626,510.287,26.704,507.616,25.192z">
            </path>
        </symbol>

        <!-- ▼ Player_消音バー ▼ -->
        <symbol id="volume_none" viewBox="0 0 256 512">
            <path d="M215 71l-89 89H24a24 24 0 0 0-24 24v144a24 24 0 0 0 24 24h102.06L215 441c15 15 41 4.47 41-17V88c0-21.47-26-32-41-17z"></path>
        </symbol>

        <!-- ▼ Player_音量+ ▼ -->
        <symbol id="volume_up" viewBox="0 0 576 512">
            <path d="M215.03 71.05L126.06 160H24c-13.26 0-24 10.74-24 24v144c0 13.25 10.74 24 24 24h102.06l88.97 88.95c15.03 15.03 40.97
                4.47 40.97-16.97V88.02c0-21.46-25.96-31.98-40.97-16.97zm233.32-51.08c-11.17-7.33-26.18-4.24-33.51 6.95-7.34 11.17-4.22
                26.18 6.95 33.51 66.27 43.49 105.82 116.6 105.82 195.58 0 78.98-39.55 152.09-105.82 195.58-11.17 7.32-14.29 22.34-6.95
                33.5 7.04 10.71 21.93 14.56 33.51 6.95C528.27 439.58 576 351.33 576 256S528.27 72.43 448.35 19.97zM480
                256c0-63.53-32.06-121.94-85.77-156.24-11.19-7.14-26.03-3.82-33.12 7.46s-3.78 26.21 7.41
                33.36C408.27 165.97 432 209.11 432 256s-23.73 90.03-63.48 115.42c-11.19 7.14-14.5 22.07-7.41 33.36 6.51 10.36 21.12 15.14 33.12
                7.46C447.94 377.94 480 319.54 480 256zm-141.77-76.87c-11.58-6.33-26.19-2.16-32.61 9.45-6.39 11.61-2.16 26.2 9.45 32.61C327.98
                228.28 336 241.63 336 256c0 14.38-8.02 27.72-20.92 34.81-11.61 6.41-15.84 21-9.45 32.61 6.43 11.66 21.05 15.8 32.61 9.45
                28.23-15.55 45.77-45 45.77-76.88s-17.54-61.32-45.78-76.86z">
            </path>
        </symbol>

        <!-- ▼ Player_音量- ▼ -->
        <symbol id="volume_down" viewBox="0 0 384 512">
            <path d="M215.03 72.04L126.06 161H24c-13.26 0-24 10.74-24 24v144c0 13.25 10.74 24 24 24h102.06l88.97 88.95c15.03 15.03 40.97 4.47 
                40.97-16.97V89.02c0-21.47-25.96-31.98-40.97-16.98zm123.2 108.08c-11.58-6.33-26.19-2.16-32.61 9.45-6.39 11.61-2.16 26.2 9.45 
                32.61C327.98 229.28 336 242.62 336 257c0 14.38-8.02 27.72-20.92 34.81-11.61 6.41-15.84 21-9.45 32.61 6.43 11.66 21.05 15.8 32.61 
                9.45 28.23-15.55 45.77-45 45.77-76.88s-17.54-61.32-45.78-76.87z">
            </path>
        </symbol>

        <!-- ▼ Player_消音 ▼ -->
        <symbol id="mute" viewBox="0 0 640 512">
            <path d="M594.53 508.63L6.18 53.9c-6.97-5.42-8.23-15.47-2.81-22.45L23.01 6.18C28.43-.8 38.49-2.06 45.47 3.37L633.82
                458.1c6.97 5.42 8.23 15.47 2.81 22.45l-19.64 25.27c-5.42 6.98-15.48 8.23-22.46 2.81z">
            </path>
        </symbol>

        <!-- ▼ Playlist_削除 ▼ -->
        <symbol id="delete" viewBox="0 0 512 512">
            <g>
            	<path class="st0" d="M94.296,463.359C95.853,490.118,119.045,512,145.837,512h60.43c26.792,0,70.646,0,97.439,0h60.431
            		c26.792,0,49.992-21.882,51.55-48.641l17.746-306.165H76.542L94.296,463.359z" style="fill: rgb(75, 75, 75);">
                </path>
            	<path class="st0" d="M433.696,80.591c-5.446-2.34-52.875-19.6-124.124-26.059c0.009-0.322,0.026-0.634,0.026-0.948
            		C309.589,23.983,285.597,0,256.004,0c-29.602,0-53.592,23.983-53.6,53.584c0,0.313,0.017,0.626,0.024,0.948
            		C131.18,60.991,83.734,78.251,78.297,80.591c-9.491,4.07-10.851,9.491-10.851,17.63c0,5.43,0,35.278,0,35.278h377.108
            		c0,0,0-29.849,0-35.278C444.554,90.082,443.195,84.661,433.696,80.591z M255.996,52.102c-7.909,0-15.612,0.173-23.142,0.47
            		c0.56-12.326,10.685-22.154,23.15-22.17c12.457,0.016,22.583,9.844,23.143,22.17C271.616,52.274,263.913,52.102,255.996,52.102z" style="fill: rgb(75, 75, 75);">
                </path>
            </g>
        </symbol>

        <!-- ▼ Tab_ホーム ▼ -->
        <symbol id="tab_home" viewBox="0 0 460 460">
	        <g>
	        	<path d="M230.149,120.939L65.986,256.274c0,0.191-0.048,0.472-0.144,0.855c-0.094,0.38-0.144,0.656-0.144,0.852v137.041
	        		c0,4.948,1.809,9.236,5.426,12.847c3.616,3.613,7.898,5.431,12.847,5.431h109.63V303.664h73.097v109.64h109.629
	        		c4.948,0,9.236-1.814,12.847-5.435c3.617-3.607,5.432-7.898,5.432-12.847V257.981c0-0.76-0.104-1.334-0.288-1.707L230.149,120.939z">
                </path>
	        	<path d="M457.122,225.438L394.6,173.476V56.989c0-2.663-0.856-4.853-2.574-6.567c-1.704-1.712-3.894-2.568-6.563-2.568h-54.816
	        		c-2.666,0-4.855,0.856-6.57,2.568c-1.711,1.714-2.566,3.905-2.566,6.567v55.673l-69.662-58.245
	        		c-6.084-4.949-13.318-7.423-21.694-7.423c-8.375,0-15.608,2.474-21.698,7.423L3.172,225.438c-1.903,1.52-2.946,3.566-3.14,6.136
	        		c-0.193,2.568,0.472,4.811,1.997,6.713l17.701,21.128c1.525,1.712,3.521,2.759,5.996,3.142c2.285,0.192,4.57-0.476,6.855-1.998
	        		L230.149,95.817l197.57,164.741c1.526,1.328,3.521,1.991,5.996,1.991h0.858c2.471-0.376,4.463-1.43,5.996-3.138l17.703-21.125
	        		c1.522-1.906,2.189-4.145,1.991-6.716C460.068,229.007,459.021,226.961,457.122,225.438z">
                </path>
	        </g>
        </symbol>

        <!-- ▼ Tab_再生 ▼ -->
        <symbol id="tab_player" viewBox="0 0 512 512">
	        <path d="M256,0C114.833,0,0,114.844,0,256s114.833,256,256,256s256-114.844,256-256S397.167,0,256,0z M357.771,264.969
	        	l-149.333,96c-1.75,1.135-3.771,1.698-5.771,1.698c-1.75,0-3.521-0.438-5.104-1.302C194.125,359.49,192,355.906,192,352V160
	        	c0-3.906,2.125-7.49,5.563-9.365c3.375-1.854,7.604-1.74,10.875,0.396l149.333,96c3.042,1.958,4.896,5.344,4.896,8.969
	        	S360.813,263.01,357.771,264.969z">
            </path>
        </symbol>

        <!-- ▼ Tab_チャット ▼ -->
        <symbol id="tab_chat" viewBox="0 0 512 512">
            <path d="M255,16C114.39,16,0,116.928,0,241c0,52.412,20.742,103.198,58.491,143.452c7.471,30.806-1.597,63.442-24.097,85.942
			    C24.986,479.803,31.639,496,45,496c42.744,0,83.95-16.743,114.565-46.274C189.858,460.536,221.909,466,255,466
			    c140.61,0,257-100.928,257-225S395.61,16,255,16z M137,286c-24.814,0-45-20.186-45-45c0-24.814,20.186-45,45-45
			    c24.814,0,45,20.186,45,45C182,265.814,161.814,286,137,286z M257,286c-24.814,0-45-20.186-45-45c0-24.814,20.186-45,45-45
			    c24.814,0,45,20.186,45,45C302,265.814,281.814,286,257,286z M377,286c-24.814,0-45-20.186-45-45c0-24.814,20.186-45,45-45
			    c24.814,0,45,20.186,45,45C422,265.814,401.814,286,377,286z">
            </path>
        </symbol>

        <!-- ▼ Tab_プレイリスト ▼ -->
        <symbol id="tab_playlist" viewBox="0 0 320 320">
            <g><rect y="96" width="256" height="42.667"/></g>
            <g><rect y="10.667" width="256" height="42.667"/></g>
            <g><rect y="181.333" width="170.667" height="42.667"/></g>
            <g><polygon points="213.333,181.333 213.333,309.333 320,245.333"/></g>
        </symbol>

    </defs>
</svg>